TITLE ""
FILE "DISC1Track22.mp3" MP3
  TRACK 01 AUDIO
    TITLE "DISC1Track22_01"
    INDEX 01 00:00:00
  TRACK 02 AUDIO
    TITLE "DISC1Track22_02"
    INDEX 01 00:02:25
  TRACK 03 AUDIO
    TITLE "DISC1Track22_03"
    INDEX 01 00:02:46
  TRACK 04 AUDIO
    TITLE "DISC1Track22_04"
    INDEX 01 00:05:17
  TRACK 05 AUDIO
    TITLE "DISC1Track22_05"
    INDEX 01 00:08:04
  TRACK 06 AUDIO
    TITLE "DISC1Track22_06"
    INDEX 01 00:10:60
  TRACK 07 AUDIO
    TITLE "DISC1Track22_07"
    INDEX 01 00:11:08
  TRACK 08 AUDIO
    TITLE "DISC1Track22_08"
    INDEX 01 00:15:49
  TRACK 09 AUDIO
    TITLE "DISC1Track22_09"
    INDEX 01 00:19:72
  TRACK 10 AUDIO
    TITLE "DISC1Track22_10"
    INDEX 01 00:24:13
  TRACK 11 AUDIO
    TITLE "DISC1Track22_11"
    INDEX 01 00:24:36
  TRACK 12 AUDIO
    TITLE "DISC1Track22_12"
    INDEX 01 00:27:37
  TRACK 13 AUDIO
    TITLE "DISC1Track22_13"
    INDEX 01 00:30:43
  TRACK 14 AUDIO
    TITLE "DISC1Track22_14"
    INDEX 01 00:33:43
  TRACK 15 AUDIO
    TITLE "DISC1Track22_15"
    INDEX 01 00:33:65
  TRACK 16 AUDIO
    TITLE "DISC1Track22_16"
    INDEX 01 00:37:35
  TRACK 17 AUDIO
    TITLE "DISC1Track22_17"
    INDEX 01 00:40:73
  TRACK 18 AUDIO
    TITLE "DISC1Track22_18"
    INDEX 01 00:44:17
  TRACK 19 AUDIO
    TITLE "DISC1Track22_19"
    INDEX 01 00:44:47
  TRACK 20 AUDIO
    TITLE "DISC1Track22_20"
    INDEX 01 00:47:49
  TRACK 21 AUDIO
    TITLE "DISC1Track22_21"
    INDEX 01 00:50:49
  TRACK 22 AUDIO
    TITLE "DISC1Track22_22"
    INDEX 01 00:53:48
  TRACK 23 AUDIO
    TITLE "DISC1Track22_23"
    INDEX 01 00:53:71
  TRACK 24 AUDIO
    TITLE "DISC1Track22_24"
    INDEX 01 00:57:04
  TRACK 25 AUDIO
    TITLE "DISC1Track22_25"
    INDEX 01 01:00:24
  TRACK 26 AUDIO
    TITLE "DISC1Track22_26"
    INDEX 01 01:03:38
  TRACK 27 AUDIO
    TITLE "DISC1Track22_27"
    INDEX 01 01:03:62
  TRACK 28 AUDIO
    TITLE "DISC1Track22_28"
    INDEX 01 01:09:10
  TRACK 29 AUDIO
    TITLE "DISC1Track22_29"
    INDEX 01 01:14:01
  TRACK 30 AUDIO
    TITLE "DISC1Track22_30"
    INDEX 01 01:18:61
  TRACK 31 AUDIO
    TITLE "DISC1Track22_31"
    INDEX 01 01:19:08
  TRACK 32 AUDIO
    TITLE "DISC1Track22_32"
    INDEX 01 01:22:67
  TRACK 33 AUDIO
    TITLE "DISC1Track22_33"
    INDEX 01 01:26:30
  TRACK 34 AUDIO
    TITLE "DISC1Track22_34"
    INDEX 01 01:29:61
  TRACK 35 AUDIO
    TITLE "DISC1Track22_35"
    INDEX 01 01:30:06
  TRACK 36 AUDIO
    TITLE "DISC1Track22_36"
    INDEX 01 01:35:13
  TRACK 37 AUDIO
    TITLE "DISC1Track22_37"
    INDEX 01 01:39:28
  TRACK 38 AUDIO
    TITLE "DISC1Track22_38"
    INDEX 01 01:43:30
  TRACK 39 AUDIO
    TITLE "DISC1Track22_39"
    INDEX 01 01:43:59
  TRACK 40 AUDIO
    TITLE "DISC1Track22_40"
    INDEX 01 01:47:65
  TRACK 41 AUDIO
    TITLE "DISC1Track22_41"
    INDEX 01 01:52:03
  TRACK 42 AUDIO
    TITLE "DISC1Track22_42"
    INDEX 01 01:55:47
